<?xml version="1.0" encoding="utf-8"?>
<!-- Generator: Adobe Illustrator 18.0.0, SVG Export Plug-In . SVG Version: 6.00 Build 0)  -->
<!DOCTYPE svg PUBLIC "-//W3C//DTD SVG 1.1//EN" "http://www.w3.org/Graphics/SVG/1.1/DTD/svg11.dtd">
<svg version="1.1" id="Layer_1" xmlns="http://www.w3.org/2000/svg" xmlns:xlink="http://www.w3.org/1999/xlink" x="0px" y="0px"
	 viewBox="0 0 270.3 83.7" enable-background="new 0 0 270.3 83.7" xml:space="preserve">
<g>
	<path fill="#FCFCFC" d="M23.6,24.1h2.2l4.5,21.1h-2.8l-0.8-4.1h-4.2l-0.8,4.1H19L23.6,24.1z M26.4,38.9l-0.6-3.4
		c-0.4-2.3-0.8-4.7-1-7.3c-0.1,1.3-0.3,2.5-0.5,3.8c-0.2,1.3-0.4,2.7-0.7,4.1L23,38.9H26.4z"/>
	<path fill="#FCFCFC" d="M32,24.1h2.8v18.7h4.6v2.4H32V24.1z"/>
	<path fill="#FCFCFC" d="M41.3,24.1h2.8v18.7h4.6v2.4h-7.5V24.1z"/>
	<path fill="#FCFCFC" d="M65.8,24.6v2.8c-0.9-0.6-1.6-0.9-2.3-0.9c-0.7,0-1.4,0.3-1.8,0.8c-0.5,0.5-0.7,1.2-0.7,2
		c0,0.7,0.2,1.4,0.5,1.9c0.2,0.3,0.5,0.6,0.9,1.1s0.9,1,1.5,1.6c1.2,1.2,1.9,2.2,2.4,3c0.4,0.8,0.6,1.8,0.6,3c0,1.6-0.5,3-1.4,4
		c-0.9,1-2.1,1.5-3.5,1.5c-1.2,0-2.2-0.3-3.1-1v-2.8c1,0.7,1.9,1.1,2.8,1.1c0.8,0,1.4-0.3,1.8-0.8s0.7-1.2,0.7-2.1
		c0-0.8-0.2-1.5-0.5-2.1c-0.2-0.3-0.4-0.6-0.7-1c-0.3-0.4-0.7-0.8-1.2-1.3c-0.7-0.7-1.3-1.3-1.8-1.9c-0.5-0.5-0.8-1-1.1-1.4
		c-0.4-0.8-0.7-1.8-0.7-3c0-1.6,0.4-3,1.3-3.9c0.9-1,2-1.5,3.5-1.5C63.9,23.8,64.9,24.1,65.8,24.6z"/>
	<path fill="#FCFCFC" d="M67.8,24.1h9.3v2.5h-3.2v18.6h-2.8V26.6h-3.3V24.1z"/>
	<path fill="#FCFCFC" d="M81.3,24.1h2.2L88,45.2h-2.8l-0.8-4.1h-4.2l-0.8,4.1h-2.7L81.3,24.1z M84,38.9l-0.6-3.4
		c-0.4-2.3-0.8-4.7-1-7.3c-0.1,1.3-0.3,2.5-0.5,3.8c-0.2,1.3-0.4,2.7-0.7,4.1l-0.5,2.7H84z"/>
	<path fill="#FCFCFC" d="M89.7,24.1h3.7c1.5,0,2.7,0.4,3.5,1.1c1,1,1.4,2.4,1.4,4.4c0,1.5-0.3,2.7-0.8,3.6s-1.2,1.5-2.2,1.7
		l3.9,10.3h-2.9l-3.9-10.3v10.3h-2.8V24.1z M92.5,33.5c1.1,0,1.9-0.3,2.3-0.8c0.5-0.5,0.7-1.4,0.7-2.6c0-0.7,0-1.2-0.1-1.7
		s-0.2-0.8-0.5-1.1s-0.5-0.5-0.8-0.6c-0.3-0.1-0.7-0.2-1.2-0.2h-0.5V33.5z"/>
	<path fill="#FCFCFC" d="M109.6,24.1h2.8v21.1h-2.8V24.1z"/>
	<path fill="#FCFCFC" d="M115.7,24.1h2.7l2.8,8.4c0.8,2.4,1.5,4.9,2.2,7.6c-0.2-1.6-0.4-3.1-0.5-4.4s-0.2-2.6-0.2-3.7v-7.9h2.9v21.1
		h-2.7l-3.2-9.5c-0.3-0.9-0.6-1.8-0.8-2.7s-0.5-1.9-0.7-2.9c0-0.1,0-0.3-0.1-0.5S118,29.2,118,29c0,0.2,0,0.4,0.1,0.6
		c0,0.2,0,0.3,0,0.4l0.2,2.1l0.2,2.6c0,0.1,0,0.3,0,0.5c0,0.2,0,0.4,0,0.7l0.2,9.2h-2.8V24.1z"/>
	<path fill="#FCFCFC" d="M127.2,24.1h9.3v2.5h-3.2v18.6h-2.8V26.6h-3.3V24.1z"/>
	<path fill="#FCFCFC" d="M138,24.1h7.6v2.4h-4.7v6.7h4.2v2.4h-4.2v7.2h4.7v2.4H138V24.1z"/>
	<path fill="#FCFCFC" d="M148.2,24.1h3.7c1.5,0,2.7,0.4,3.5,1.1c1,1,1.4,2.4,1.4,4.4c0,1.5-0.3,2.7-0.8,3.6s-1.2,1.5-2.2,1.7
		l3.9,10.3h-2.9L151,34.9v10.3h-2.8V24.1z M151,33.5c1.1,0,1.9-0.3,2.3-0.8c0.5-0.5,0.7-1.4,0.7-2.6c0-0.7,0-1.2-0.1-1.7
		s-0.2-0.8-0.5-1.1s-0.5-0.5-0.8-0.6c-0.3-0.1-0.7-0.2-1.2-0.2H151V33.5z"/>
	<path fill="#FCFCFC" d="M163,24.1h2.2l4.5,21.1h-2.8l-0.8-4.1h-4.2l-0.8,4.1h-2.7L163,24.1z M165.7,38.9l-0.6-3.4
		c-0.4-2.3-0.8-4.7-1-7.3c-0.1,1.3-0.3,2.5-0.5,3.8c-0.2,1.3-0.4,2.7-0.7,4.1l-0.5,2.7H165.7z"/>
	<path fill="#FCFCFC" d="M179.5,24.5V27c-0.7-0.4-1.3-0.5-1.8-0.5c-0.7,0-1.3,0.2-1.7,0.5c-0.5,0.3-0.9,0.8-1.2,1.5
		s-0.5,1.6-0.7,2.6s-0.2,2.3-0.2,3.8c0,5.2,1.3,7.8,4,7.8c0.5,0,1-0.1,1.7-0.4v2.6c-0.7,0.4-1.4,0.6-2.3,0.6
		c-4.3,0-6.4-3.5-6.4-10.5c0-3.8,0.5-6.6,1.6-8.4c1-1.8,2.6-2.8,4.8-2.8C177.9,23.8,178.7,24,179.5,24.5z"/>
	<path fill="#FCFCFC" d="M180.2,24.1h9.3v2.5h-3.2v18.6h-2.8V26.6h-3.3V24.1z"/>
	<path fill="#FCFCFC" d="M191,24.1h2.8v21.1H191V24.1z"/>
	<path fill="#FCFCFC" d="M195.4,24.1h2.8l1.3,7.8l0.2,1.4l0.5,3.1c0.1,0.5,0.1,1,0.2,1.4c0.1,0.4,0.1,0.8,0.2,1.2l0.1,1
		c0-0.2,0-0.4,0.1-0.6c0-0.2,0-0.3,0.1-0.4l0.4-2.4l0.5-3.2c0-0.3,0.1-0.6,0.1-0.8s0.1-0.5,0.1-0.7l1.4-7.8h2.7l-4.1,21.1h-2.3
		L195.4,24.1z"/>
	<path fill="#FCFCFC" d="M207.5,24.1h7.6v2.4h-4.7v6.7h4.2v2.4h-4.2v7.2h4.7v2.4h-7.6V24.1z"/>
	<path fill="#AAAAAA" d="M140.6,46.9h4.1v1.3h-2.5v3.6h2.2v1.3h-2.2v3.9h2.5v1.3h-4.1V46.9z"/>
	<path fill="#AAAAAA" d="M146,46.9h1.4l1.5,4.5c0.4,1.3,0.8,2.6,1.2,4.1c-0.1-0.9-0.2-1.7-0.3-2.4s-0.1-1.4-0.1-2v-4.2h1.5v11.3
		h-1.4l-1.7-5.1c-0.2-0.5-0.3-1-0.4-1.5c-0.1-0.5-0.3-1-0.4-1.6c0-0.1,0-0.2,0-0.2c0-0.1,0-0.2-0.1-0.3c0,0.1,0,0.2,0,0.3
		c0,0.1,0,0.2,0,0.2l0.1,1.2l0.1,1.4c0,0.1,0,0.2,0,0.3c0,0.1,0,0.2,0,0.4l0.1,4.9H146V46.9z"/>
	<path fill="#AAAAAA" d="M152.1,46.9h5v1.3h-1.7v10h-1.5v-10h-1.8V46.9z"/>
	<path fill="#AAAAAA" d="M157.9,46.9h4.1v1.3h-2.5v3.6h2.2v1.3h-2.2v3.9h2.5v1.3h-4.1V46.9z"/>
	<path fill="#AAAAAA" d="M163.4,46.9h2c0.8,0,1.4,0.2,1.9,0.6c0.5,0.5,0.8,1.3,0.8,2.4c0,0.8-0.1,1.5-0.4,2
		c-0.3,0.5-0.7,0.8-1.2,0.9l2.1,5.5H167l-2.1-5.5v5.5h-1.5V46.9z M164.9,51.9c0.6,0,1-0.1,1.3-0.4s0.4-0.7,0.4-1.4
		c0-0.4,0-0.7-0.1-0.9c-0.1-0.2-0.1-0.5-0.2-0.6c-0.1-0.2-0.3-0.3-0.4-0.3c-0.2-0.1-0.4-0.1-0.6-0.1h-0.3V51.9z"/>
	<path fill="#AAAAAA" d="M169,46.9h5v1.3h-1.7v10h-1.5v-10H169V46.9z"/>
	<path fill="#AAAAAA" d="M176.2,46.9h1.2l2.4,11.3h-1.5l-0.4-2.2h-2.2l-0.4,2.2h-1.5L176.2,46.9z M177.6,54.8l-0.3-1.8
		c-0.2-1.2-0.4-2.5-0.5-3.9c-0.1,0.7-0.2,1.4-0.3,2.1c-0.1,0.7-0.2,1.4-0.4,2.2l-0.3,1.5H177.6z"/>
	<path fill="#AAAAAA" d="M180.7,46.9h1.5v11.3h-1.5V46.9z"/>
	<path fill="#AAAAAA" d="M183.9,46.9h1.4l1.5,4.5c0.4,1.3,0.8,2.6,1.2,4.1c-0.1-0.9-0.2-1.7-0.3-2.4s-0.1-1.4-0.1-2v-4.2h1.5v11.3
		h-1.4l-1.7-5.1c-0.2-0.5-0.3-1-0.4-1.5c-0.1-0.5-0.3-1-0.4-1.6c0-0.1,0-0.2,0-0.2c0-0.1,0-0.2-0.1-0.3c0,0.1,0,0.2,0,0.3
		c0,0.1,0,0.2,0,0.2l0.1,1.2l0.1,1.4c0,0.1,0,0.2,0,0.3c0,0.1,0,0.2,0,0.4l0.1,4.9h-1.5V46.9z"/>
	<path fill="#AAAAAA" d="M191.5,46.9h1.3l1,4.6c0.1,0.6,0.2,1.2,0.3,1.7c0.1,0.6,0.2,1.2,0.3,1.8c0-0.1,0-0.1,0-0.2c0,0,0-0.1,0-0.1
		l0.2-1.3l0.2-1.2l0.2-0.8l0.9-4.5h1.3l1,11.3h-1.5l-0.3-3.8c0-0.2,0-0.4,0-0.5c0-0.1,0-0.3,0-0.4l-0.1-1.5l0-1.4c0,0,0,0,0-0.1
		c0,0,0-0.1,0-0.1l0,0.2c0,0.3-0.1,0.5-0.1,0.7c0,0.2-0.1,0.4-0.1,0.5l-0.2,1l-0.1,0.4l-1,4.9h-1L193,54c-0.1-0.6-0.2-1.1-0.3-1.7
		c-0.1-0.6-0.2-1.2-0.3-1.8l-0.4,7.8h-1.4L191.5,46.9z"/>
	<path fill="#AAAAAA" d="M199.5,46.9h4.1v1.3H201v3.6h2.2v1.3H201v3.9h2.5v1.3h-4.1V46.9z"/>
	<path fill="#AAAAAA" d="M205,46.9h1.4l1.5,4.5c0.4,1.3,0.8,2.6,1.2,4.1c-0.1-0.9-0.2-1.7-0.3-2.4s-0.1-1.4-0.1-2v-4.2h1.5v11.3
		h-1.4l-1.7-5.1c-0.2-0.5-0.3-1-0.4-1.5c-0.1-0.5-0.3-1-0.4-1.6c0-0.1,0-0.2,0-0.2c0-0.1,0-0.2-0.1-0.3c0,0.1,0,0.2,0,0.3
		c0,0.1,0,0.2,0,0.2l0.1,1.2l0.1,1.4c0,0.1,0,0.2,0,0.3c0,0.1,0,0.2,0,0.4l0.1,4.9H205V46.9z"/>
	<path fill="#AAAAAA" d="M211.1,46.9h5v1.3h-1.7v10h-1.5v-10h-1.8V46.9z"/>
</g>
<polygon fill="#DD0000" points="229.9,72 228.6,59.5 217.5,53.4 229,48.3 231.4,35.9 239.8,45.3 252.3,43.6 246,54.5 251.4,65.9 
	239,63.3 "/>
<polygon fill="#DD0000" points="239,36.5 235.6,29.3 227.7,28.1 233.6,22.4 232.5,14.4 239.5,18.2 246.7,14.4 245.2,22.4 
	250.8,28.1 242.8,29.3 "/>
<polygon fill="#DD0000" points="221.2,20.8 218.8,15.9 213.5,14.7 217.3,11.3 216.5,6.1 221.2,8.9 226,6.8 225,11.9 228.9,15.9 
	223.6,16.2 "/>
<polygon fill="#DD0000" points="206.1,21 204.8,17.9 201.4,17.3 204,15 203.6,11.7 206.5,13.3 209.5,11.9 208.8,15.2 211.1,17.6 
	207.7,18 "/>
</svg>
