<?xml version="1.0" encoding="utf-8"?>
<!-- Generator: Adobe Illustrator 18.0.0, SVG Export Plug-In . SVG Version: 6.00 Build 0)  -->
<!DOCTYPE svg PUBLIC "-//W3C//DTD SVG 1.1//EN" "http://www.w3.org/Graphics/SVG/1.1/DTD/svg11.dtd">
<svg version="1.1" id="Layer_1" xmlns="http://www.w3.org/2000/svg" xmlns:xlink="http://www.w3.org/1999/xlink" x="0px" y="0px"
	 viewBox="0 0 270.3 83.7" enable-background="new 0 0 270.3 83.7" xml:space="preserve">
<rect x="19" y="22" fill="none" width="197" height="69"/>
<text transform="matrix(1 0 0 1 19 45.2285)"><tspan x="0" y="0" fill="#CC0000" font-family="'Futura-CondensedMedium'" font-size="28">ALL</tspan><tspan x="30" y="0" fill="#CC0000" font-family="'Futura-CondensedMedium'" font-size="28" letter-spacing="2"> </tspan><tspan x="38" y="0" fill="#CC0000" font-family="'Futura-CondensedMedium'" font-size="28">STAR</tspan><tspan x="80.8" y="0" fill="#CC0000" font-family="'Futura-CondensedMedium'" font-size="28" letter-spacing="2"> </tspan><tspan x="88.8" y="0" fill="#CC0000" font-family="'Futura-CondensedMedium'" font-size="28">INTERACTIVE</tspan><tspan x="130.8" y="10.6" fill="#666666" font-family="'Futura-CondensedMedium'" font-size="13">ENTERTAINMENT</tspan></text>
<polygon fill="#CC0000" points="229.9,72 228.6,59.5 217.5,53.4 229,48.3 231.4,35.9 239.8,45.3 252.3,43.6 246,54.5 251.4,65.9 
	239,63.3 "/>
<polygon fill="#CC0000" points="239,36.5 235.6,29.3 227.7,28.1 233.6,22.4 232.5,14.4 239.5,18.2 246.7,14.4 245.2,22.4 
	250.8,28.1 242.8,29.3 "/>
<polygon fill="#CC0000" points="221.2,20.8 218.8,15.9 213.5,14.7 217.3,11.3 216.5,6.1 221.2,8.9 226,6.8 225,11.9 228.9,15.9 
	223.6,16.2 "/>
<polygon fill="#CC0000" points="206.1,21 204.8,17.9 201.4,17.3 204,15 203.6,11.7 206.5,13.3 209.5,11.9 208.8,15.2 211.1,17.6 
	207.7,18 "/>
</svg>
